<svg xmlns="http://www.w3.org/2000/svg" viewBox="0 0 920 920" font-family="ui-sans-serif,Segoe UI,sans-serif">
<rect width="920" height="920" fill="#0d0d0f"/>
<text x="460.0" y="32" fill="#e8e8ec" font-size="22" font-weight="600" text-anchor="middle">Radial 1 — Centered Radial (arc knobs + master ring)</text>
<circle cx="460.00" cy="416.00" r="12.50" fill="none" stroke="#5ec8ff" stroke-width="1.8"/><circle cx="460.00" cy="416.00" r="7.50" fill="#5ec8ff"/>
<circle cx="504.00" cy="460.00" r="12.50" fill="none" stroke="#5ec8ff" stroke-width="1.8"/>
<circle cx="460.00" cy="504.00" r="12.50" fill="none" stroke="#5ec8ff" stroke-width="1.8"/>
<circle cx="416.00" cy="460.00" r="12.50" fill="none" stroke="#5ec8ff" stroke-width="1.8"/>
<circle cx="460.00" cy="370.00" r="12.00" fill="none" stroke="#5ec8ff" stroke-width="1.8"/><circle cx="460.00" cy="370.00" r="7.20" fill="#5ec8ff"/>
<circle cx="505.00" cy="382.06" r="12.00" fill="none" stroke="#5ec8ff" stroke-width="1.8"/>
<circle cx="537.94" cy="415.00" r="12.00" fill="none" stroke="#5ec8ff" stroke-width="1.8"/>
<circle cx="550.00" cy="460.00" r="12.00" fill="none" stroke="#5ec8ff" stroke-width="1.8"/>
<circle cx="537.94" cy="505.00" r="12.00" fill="none" stroke="#5ec8ff" stroke-width="1.8"/>
<circle cx="505.00" cy="537.94" r="12.00" fill="none" stroke="#5ec8ff" stroke-width="1.8"/><circle cx="505.00" cy="537.94" r="7.20" fill="#5ec8ff"/>
<circle cx="460.00" cy="550.00" r="12.00" fill="none" stroke="#5ec8ff" stroke-width="1.8"/>
<circle cx="415.00" cy="537.94" r="12.00" fill="none" stroke="#5ec8ff" stroke-width="1.8"/>
<circle cx="382.06" cy="505.00" r="12.00" fill="none" stroke="#5ec8ff" stroke-width="1.8"/>
<circle cx="370.00" cy="460.00" r="12.00" fill="none" stroke="#5ec8ff" stroke-width="1.8"/>
<circle cx="382.06" cy="415.00" r="12.00" fill="none" stroke="#5ec8ff" stroke-width="1.8"/><circle cx="382.06" cy="415.00" r="7.20" fill="#5ec8ff"/>
<circle cx="415.00" cy="382.06" r="12.00" fill="none" stroke="#5ec8ff" stroke-width="1.8"/>
<circle cx="460.00" cy="324.00" r="11.50" fill="none" stroke="#5ec8ff" stroke-width="1.8"/><circle cx="460.00" cy="324.00" r="6.90" fill="#5ec8ff"/>
<circle cx="502.03" cy="330.66" r="11.50" fill="none" stroke="#5ec8ff" stroke-width="1.8"/>
<circle cx="539.94" cy="349.97" r="11.50" fill="none" stroke="#5ec8ff" stroke-width="1.8"/>
<circle cx="570.03" cy="380.06" r="11.50" fill="none" stroke="#5ec8ff" stroke-width="1.8"/>
<circle cx="589.34" cy="417.97" r="11.50" fill="none" stroke="#5ec8ff" stroke-width="1.8"/>
<circle cx="596.00" cy="460.00" r="11.50" fill="none" stroke="#5ec8ff" stroke-width="1.8"/><circle cx="596.00" cy="460.00" r="6.90" fill="#5ec8ff"/>
<circle cx="589.34" cy="502.03" r="11.50" fill="none" stroke="#5ec8ff" stroke-width="1.8"/>
<circle cx="570.03" cy="539.94" r="11.50" fill="none" stroke="#5ec8ff" stroke-width="1.8"/>
<circle cx="539.94" cy="570.03" r="11.50" fill="none" stroke="#5ec8ff" stroke-width="1.8"/>
<circle cx="502.03" cy="589.34" r="11.50" fill="none" stroke="#5ec8ff" stroke-width="1.8"/>
<circle cx="460.00" cy="596.00" r="11.50" fill="none" stroke="#5ec8ff" stroke-width="1.8"/><circle cx="460.00" cy="596.00" r="6.90" fill="#5ec8ff"/>
<circle cx="417.97" cy="589.34" r="11.50" fill="none" stroke="#5ec8ff" stroke-width="1.8"/>
<circle cx="380.06" cy="570.03" r="11.50" fill="none" stroke="#5ec8ff" stroke-width="1.8"/>
<circle cx="349.97" cy="539.94" r="11.50" fill="none" stroke="#5ec8ff" stroke-width="1.8"/>
<circle cx="330.66" cy="502.03" r="11.50" fill="none" stroke="#5ec8ff" stroke-width="1.8"/>
<circle cx="324.00" cy="460.00" r="11.50" fill="none" stroke="#5ec8ff" stroke-width="1.8"/><circle cx="324.00" cy="460.00" r="6.90" fill="#5ec8ff"/>
<circle cx="330.66" cy="417.97" r="11.50" fill="none" stroke="#5ec8ff" stroke-width="1.8"/>
<circle cx="349.97" cy="380.06" r="11.50" fill="none" stroke="#5ec8ff" stroke-width="1.8"/>
<circle cx="380.06" cy="349.97" r="11.50" fill="none" stroke="#5ec8ff" stroke-width="1.8"/>
<circle cx="417.97" cy="330.66" r="11.50" fill="none" stroke="#5ec8ff" stroke-width="1.8"/>
<circle cx="460.00" cy="278.00" r="10.50" fill="none" stroke="#5ec8ff" stroke-width="1.8"/><circle cx="460.00" cy="278.00" r="6.30" fill="#5ec8ff"/>
<circle cx="500.50" cy="282.56" r="10.50" fill="none" stroke="#5ec8ff" stroke-width="1.8"/>
<circle cx="538.97" cy="296.02" r="10.50" fill="none" stroke="#5ec8ff" stroke-width="1.8"/>
<circle cx="573.48" cy="317.71" r="10.50" fill="none" stroke="#5ec8ff" stroke-width="1.8"/>
<circle cx="602.29" cy="346.52" r="10.50" fill="none" stroke="#5ec8ff" stroke-width="1.8"/>
<circle cx="623.98" cy="381.03" r="10.50" fill="none" stroke="#5ec8ff" stroke-width="1.8"/><circle cx="623.98" cy="381.03" r="6.30" fill="#5ec8ff"/>
<circle cx="637.44" cy="419.50" r="10.50" fill="none" stroke="#5ec8ff" stroke-width="1.8"/>
<circle cx="642.00" cy="460.00" r="10.50" fill="none" stroke="#5ec8ff" stroke-width="1.8"/>
<circle cx="637.44" cy="500.50" r="10.50" fill="none" stroke="#5ec8ff" stroke-width="1.8"/>
<circle cx="623.98" cy="538.97" r="10.50" fill="none" stroke="#5ec8ff" stroke-width="1.8"/>
<circle cx="602.29" cy="573.48" r="10.50" fill="none" stroke="#5ec8ff" stroke-width="1.8"/><circle cx="602.29" cy="573.48" r="6.30" fill="#5ec8ff"/>
<circle cx="573.48" cy="602.29" r="10.50" fill="none" stroke="#5ec8ff" stroke-width="1.8"/>
<circle cx="538.97" cy="623.98" r="10.50" fill="none" stroke="#5ec8ff" stroke-width="1.8"/>
<circle cx="500.50" cy="637.44" r="10.50" fill="none" stroke="#5ec8ff" stroke-width="1.8"/>
<circle cx="460.00" cy="642.00" r="10.50" fill="none" stroke="#5ec8ff" stroke-width="1.8"/>
<circle cx="419.50" cy="637.44" r="10.50" fill="none" stroke="#5ec8ff" stroke-width="1.8"/><circle cx="419.50" cy="637.44" r="6.30" fill="#5ec8ff"/>
<circle cx="381.03" cy="623.98" r="10.50" fill="none" stroke="#5ec8ff" stroke-width="1.8"/>
<circle cx="346.52" cy="602.29" r="10.50" fill="none" stroke="#5ec8ff" stroke-width="1.8"/>
<circle cx="317.71" cy="573.48" r="10.50" fill="none" stroke="#5ec8ff" stroke-width="1.8"/>
<circle cx="296.02" cy="538.97" r="10.50" fill="none" stroke="#5ec8ff" stroke-width="1.8"/>
<circle cx="282.56" cy="500.50" r="10.50" fill="none" stroke="#5ec8ff" stroke-width="1.8"/><circle cx="282.56" cy="500.50" r="6.30" fill="#5ec8ff"/>
<circle cx="278.00" cy="460.00" r="10.50" fill="none" stroke="#5ec8ff" stroke-width="1.8"/>
<circle cx="282.56" cy="419.50" r="10.50" fill="none" stroke="#5ec8ff" stroke-width="1.8"/>
<circle cx="296.02" cy="381.03" r="10.50" fill="none" stroke="#5ec8ff" stroke-width="1.8"/>
<circle cx="317.71" cy="346.52" r="10.50" fill="none" stroke="#5ec8ff" stroke-width="1.8"/>
<circle cx="346.52" cy="317.71" r="10.50" fill="none" stroke="#5ec8ff" stroke-width="1.8"/><circle cx="346.52" cy="317.71" r="6.30" fill="#5ec8ff"/>
<circle cx="381.03" cy="296.02" r="10.50" fill="none" stroke="#5ec8ff" stroke-width="1.8"/>
<circle cx="419.50" cy="282.56" r="10.50" fill="none" stroke="#5ec8ff" stroke-width="1.8"/>
<path d="M 385.23 248.85 A 224 224 0 0 1 534.77 248.85" fill="none" stroke="#26262c" stroke-width="7" stroke-linecap="round"/><path d="M 385.23 248.85 A 224 224 0 0 1 416.07 240.35" fill="none" stroke="#ffd166" stroke-width="7" stroke-linecap="round"/>
<path d="M 556.43 257.82 A 224 224 0 0 1 662.18 363.57" fill="none" stroke="#26262c" stroke-width="7" stroke-linecap="round"/><path d="M 556.43 257.82 A 224 224 0 0 1 586.46 275.11" fill="none" stroke="#ffd166" stroke-width="7" stroke-linecap="round"/>
<path d="M 671.15 385.23 A 224 224 0 0 1 671.15 534.77" fill="none" stroke="#26262c" stroke-width="7" stroke-linecap="round"/><path d="M 671.15 385.23 A 224 224 0 0 1 680.63 421.31" fill="none" stroke="#ffd166" stroke-width="7" stroke-linecap="round"/>
<path d="M 662.18 556.43 A 224 224 0 0 1 556.43 662.18" fill="none" stroke="#26262c" stroke-width="7" stroke-linecap="round"/><path d="M 662.18 556.43 A 224 224 0 0 1 641.82 590.83" fill="none" stroke="#ffd166" stroke-width="7" stroke-linecap="round"/>
<path d="M 534.77 671.15 A 224 224 0 0 1 385.23 671.15" fill="none" stroke="#26262c" stroke-width="7" stroke-linecap="round"/><path d="M 534.77 671.15 A 224 224 0 0 1 493.42 681.49" fill="none" stroke="#ffd166" stroke-width="7" stroke-linecap="round"/>
<path d="M 363.57 662.18 A 224 224 0 0 1 257.82 556.43" fill="none" stroke="#26262c" stroke-width="7" stroke-linecap="round"/><path d="M 363.57 662.18 A 224 224 0 0 1 324.87 638.65" fill="none" stroke="#ffd166" stroke-width="7" stroke-linecap="round"/>
<path d="M 248.85 534.77 A 224 224 0 0 1 248.85 385.23" fill="none" stroke="#26262c" stroke-width="7" stroke-linecap="round"/><path d="M 248.85 534.77 A 224 224 0 0 1 237.77 488.13" fill="none" stroke="#ffd166" stroke-width="7" stroke-linecap="round"/>
<path d="M 257.82 363.57 A 224 224 0 0 1 363.57 257.82" fill="none" stroke="#26262c" stroke-width="7" stroke-linecap="round"/><path d="M 257.82 363.57 A 224 224 0 0 1 284.62 320.66" fill="none" stroke="#ffd166" stroke-width="7" stroke-linecap="round"/>
<path d="M 375.88 222.45 A 252 252 0 0 1 544.12 222.45" fill="none" stroke="#26262c" stroke-width="7" stroke-linecap="round"/><path d="M 375.88 222.45 A 252 252 0 0 1 436.02 209.14" fill="none" stroke="#ffd166" stroke-width="7" stroke-linecap="round"/>
<path d="M 568.49 232.55 A 252 252 0 0 1 687.45 351.51" fill="none" stroke="#26262c" stroke-width="7" stroke-linecap="round"/><path d="M 568.49 232.55 A 252 252 0 0 1 624.36 268.98" fill="none" stroke="#ffd166" stroke-width="7" stroke-linecap="round"/>
<path d="M 697.55 375.88 A 252 252 0 0 1 697.55 544.12" fill="none" stroke="#26262c" stroke-width="7" stroke-linecap="round"/><path d="M 697.55 375.88 A 252 252 0 0 1 711.63 446.28" fill="none" stroke="#ffd166" stroke-width="7" stroke-linecap="round"/>
<path d="M 687.45 568.49 A 252 252 0 0 1 568.49 687.45" fill="none" stroke="#26262c" stroke-width="7" stroke-linecap="round"/><path d="M 687.45 568.49 A 252 252 0 0 1 644.15 632.02" fill="none" stroke="#ffd166" stroke-width="7" stroke-linecap="round"/>
<path d="M 544.12 697.55 A 252 252 0 0 1 375.88 697.55" fill="none" stroke="#26262c" stroke-width="7" stroke-linecap="round"/><path d="M 544.12 697.55 A 252 252 0 0 1 463.43 711.98" fill="none" stroke="#ffd166" stroke-width="7" stroke-linecap="round"/>
<path d="M 351.51 687.45 A 252 252 0 0 1 232.55 568.49" fill="none" stroke="#26262c" stroke-width="7" stroke-linecap="round"/><path d="M 351.51 687.45 A 252 252 0 0 1 280.60 636.97" fill="none" stroke="#ffd166" stroke-width="7" stroke-linecap="round"/>
<path d="M 222.45 544.12 A 252 252 0 0 1 222.45 375.88" fill="none" stroke="#26262c" stroke-width="7" stroke-linecap="round"/><path d="M 222.45 544.12 A 252 252 0 0 1 208.09 453.14" fill="none" stroke="#ffd166" stroke-width="7" stroke-linecap="round"/>
<path d="M 232.55 351.51 A 252 252 0 0 1 351.51 232.55" fill="none" stroke="#26262c" stroke-width="7" stroke-linecap="round"/><path d="M 232.55 351.51 A 252 252 0 0 1 290.50 273.52" fill="none" stroke="#ffd166" stroke-width="7" stroke-linecap="round"/>
<path d="M 366.53 196.06 A 280 280 0 0 1 553.47 196.06" fill="none" stroke="#26262c" stroke-width="7" stroke-linecap="round"/><path d="M 366.53 196.06 A 280 280 0 0 1 461.91 180.01" fill="none" stroke="#ffd166" stroke-width="7" stroke-linecap="round"/>
<path d="M 580.54 207.28 A 280 280 0 0 1 712.72 339.46" fill="none" stroke="#26262c" stroke-width="7" stroke-linecap="round"/><path d="M 580.54 207.28 A 280 280 0 0 1 664.94 269.21" fill="none" stroke="#ffd166" stroke-width="7" stroke-linecap="round"/>
<path d="M 723.94 366.53 A 280 280 0 0 1 723.94 553.47" fill="none" stroke="#26262c" stroke-width="7" stroke-linecap="round"/><path d="M 723.94 366.53 A 280 280 0 0 1 739.41 478.09" fill="none" stroke="#ffd166" stroke-width="7" stroke-linecap="round"/>
<path d="M 712.72 580.54 A 280 280 0 0 1 580.54 712.72" fill="none" stroke="#26262c" stroke-width="7" stroke-linecap="round"/><path d="M 712.72 580.54 A 280 280 0 0 1 638.62 675.63" fill="none" stroke="#ffd166" stroke-width="7" stroke-linecap="round"/>
<path d="M 553.47 723.94 A 280 280 0 0 1 366.53 723.94" fill="none" stroke="#26262c" stroke-width="7" stroke-linecap="round"/><path d="M 553.47 723.94 A 280 280 0 0 1 425.78 737.90" fill="none" stroke="#ffd166" stroke-width="7" stroke-linecap="round"/>
<path d="M 339.46 712.72 A 280 280 0 0 1 207.28 580.54" fill="none" stroke="#26262c" stroke-width="7" stroke-linecap="round"/><path d="M 339.46 712.72 A 280 280 0 0 1 234.41 625.85" fill="none" stroke="#ffd166" stroke-width="7" stroke-linecap="round"/>
<path d="M 196.06 553.47 A 280 280 0 0 1 196.06 366.53" fill="none" stroke="#26262c" stroke-width="7" stroke-linecap="round"/><path d="M 196.06 553.47 A 280 280 0 0 1 184.54 409.77" fill="none" stroke="#ffd166" stroke-width="7" stroke-linecap="round"/>
<path d="M 207.28 339.46 A 280 280 0 0 1 339.46 207.28" fill="none" stroke="#26262c" stroke-width="7" stroke-linecap="round"/><path d="M 207.28 339.46 A 280 280 0 0 1 307.47 225.19" fill="none" stroke="#ffd166" stroke-width="7" stroke-linecap="round"/>
<path d="M 354.52 162.13 A 316 316 0 0 1 565.48 162.13" fill="none" stroke="#26262c" stroke-width="11" stroke-linecap="round"/><path d="M 354.52 162.13 A 316 316 0 0 1 438.51 144.73" fill="none" stroke="#57d9a3" stroke-width="11" stroke-linecap="round"/>
<path d="M 596.04 174.78 A 316 316 0 0 1 745.22 323.96" fill="none" stroke="#26262c" stroke-width="11" stroke-linecap="round"/><path d="M 596.04 174.78 A 316 316 0 0 1 677.28 230.55" fill="none" stroke="#57d9a3" stroke-width="11" stroke-linecap="round"/>
<path d="M 757.87 354.52 A 316 316 0 0 1 757.87 565.48" fill="none" stroke="#26262c" stroke-width="11" stroke-linecap="round"/><path d="M 757.87 354.52 A 316 316 0 0 1 775.97 464.30" fill="none" stroke="#57d9a3" stroke-width="11" stroke-linecap="round"/>
<path d="M 745.22 596.04 A 316 316 0 0 1 596.04 745.22" fill="none" stroke="#26262c" stroke-width="11" stroke-linecap="round"/><path d="M 745.22 596.04 A 316 316 0 0 1 670.95 695.28" fill="none" stroke="#57d9a3" stroke-width="11" stroke-linecap="round"/>
<path d="M 565.48 757.87 A 316 316 0 0 1 354.52 757.87" fill="none" stroke="#26262c" stroke-width="11" stroke-linecap="round"/><path d="M 565.48 757.87 A 316 316 0 0 1 429.93 774.57" fill="none" stroke="#57d9a3" stroke-width="11" stroke-linecap="round"/>
<path d="M 323.96 745.22 A 316 316 0 0 1 174.78 596.04" fill="none" stroke="#26262c" stroke-width="11" stroke-linecap="round"/><path d="M 323.96 745.22 A 316 316 0 0 1 208.30 651.05" fill="none" stroke="#57d9a3" stroke-width="11" stroke-linecap="round"/>
<path d="M 162.13 565.48 A 316 316 0 0 1 162.13 354.52" fill="none" stroke="#26262c" stroke-width="11" stroke-linecap="round"/><path d="M 162.13 565.48 A 316 316 0 0 1 148.94 404.37" fill="none" stroke="#57d9a3" stroke-width="11" stroke-linecap="round"/>
<path d="M 174.78 323.96 A 316 316 0 0 1 323.96 174.78" fill="none" stroke="#26262c" stroke-width="11" stroke-linecap="round"/><path d="M 174.78 323.96 A 316 316 0 0 1 290.12 193.55" fill="none" stroke="#57d9a3" stroke-width="11" stroke-linecap="round"/>
<circle cx="460.0" cy="460.0" r="352" fill="none" stroke="#26262c" stroke-width="13"/>
<path d="M 460.00 108.00 A 352 352 0 1 1 114.23 525.96" fill="none" stroke="#b18cff" stroke-width="13" stroke-linecap="round"/>
<circle cx="412.23" cy="70.92" r="6" fill="none" stroke="#ff5a5a" stroke-width="2"/><circle cx="412.23" cy="70.92" r="3" fill="#ff5a5a"/>
<circle cx="507.77" cy="70.92" r="6" fill="none" stroke="#ff4faf" stroke-width="2"/><circle cx="507.77" cy="70.92" r="3" fill="#ff4faf"/>
<circle cx="701.34" cy="151.10" r="6" fill="none" stroke="#ff5a5a" stroke-width="2"/><circle cx="701.34" cy="151.10" r="3" fill="#ff5a5a"/>
<circle cx="768.90" cy="218.66" r="6" fill="none" stroke="#ff4faf" stroke-width="2"/><circle cx="768.90" cy="218.66" r="3" fill="#ff4faf"/>
<circle cx="849.08" cy="412.23" r="6" fill="none" stroke="#ff5a5a" stroke-width="2"/><circle cx="849.08" cy="412.23" r="3" fill="#ff5a5a"/>
<circle cx="849.08" cy="507.77" r="6" fill="none" stroke="#ff4faf" stroke-width="2"/><circle cx="849.08" cy="507.77" r="3" fill="#ff4faf"/>
<circle cx="768.90" cy="701.34" r="6" fill="none" stroke="#ff5a5a" stroke-width="2"/><circle cx="768.90" cy="701.34" r="3" fill="#ff5a5a"/>
<circle cx="701.34" cy="768.90" r="6" fill="none" stroke="#ff4faf" stroke-width="2"/><circle cx="701.34" cy="768.90" r="3" fill="#ff4faf"/>
<circle cx="507.77" cy="849.08" r="6" fill="none" stroke="#ff5a5a" stroke-width="2"/><circle cx="507.77" cy="849.08" r="3" fill="#ff5a5a"/>
<circle cx="412.23" cy="849.08" r="6" fill="none" stroke="#ff4faf" stroke-width="2"/><circle cx="412.23" cy="849.08" r="3" fill="#ff4faf"/>
<circle cx="218.66" cy="768.90" r="6" fill="none" stroke="#ff5a5a" stroke-width="2"/><circle cx="218.66" cy="768.90" r="3" fill="#ff5a5a"/>
<circle cx="151.10" cy="701.34" r="6" fill="none" stroke="#ff4faf" stroke-width="2"/><circle cx="151.10" cy="701.34" r="3" fill="#ff4faf"/>
<circle cx="70.92" cy="507.77" r="6" fill="none" stroke="#ff5a5a" stroke-width="2"/><circle cx="70.92" cy="507.77" r="3" fill="#ff5a5a"/>
<circle cx="70.92" cy="412.23" r="6" fill="none" stroke="#ff4faf" stroke-width="2"/><circle cx="70.92" cy="412.23" r="3" fill="#ff4faf"/>
<circle cx="151.10" cy="218.66" r="6" fill="none" stroke="#ff5a5a" stroke-width="2"/><circle cx="151.10" cy="218.66" r="3" fill="#ff5a5a"/>
<circle cx="218.66" cy="151.10" r="6" fill="none" stroke="#ff4faf" stroke-width="2"/><circle cx="218.66" cy="151.10" r="3" fill="#ff4faf"/>
<text x="460.00" y="48.00" fill="#6a6a72" font-size="12" text-anchor="middle">ch1</text>
<text x="754.16" y="169.84" fill="#6a6a72" font-size="12" text-anchor="middle">ch2</text>
<text x="876.00" y="464.00" fill="#6a6a72" font-size="12" text-anchor="middle">ch3</text>
<text x="754.16" y="758.16" fill="#6a6a72" font-size="12" text-anchor="middle">ch4</text>
<text x="460.00" y="880.00" fill="#6a6a72" font-size="12" text-anchor="middle">ch5</text>
<text x="165.84" y="758.16" fill="#6a6a72" font-size="12" text-anchor="middle">ch6</text>
<text x="44.00" y="464.00" fill="#6a6a72" font-size="12" text-anchor="middle">ch7</text>
<text x="165.84" y="169.84" fill="#6a6a72" font-size="12" text-anchor="middle">ch8</text>
<text x="692.0" y="456.0" fill="#6a6a72" font-size="10">knob r1</text>
<text x="720.0" y="456.0" fill="#6a6a72" font-size="10">knob r2</text>
<text x="748.0" y="456.0" fill="#6a6a72" font-size="10">knob r3</text>
<text x="784.0" y="456.0" fill="#6a6a72" font-size="10">fader</text>
<text x="610.0" y="116.0" fill="#b18cff" font-size="11">master (full 360°)</text>
<circle cx="26" cy="824" r="5" fill="none" stroke="#5ec8ff" stroke-width="2"/>
<text x="40" y="828" fill="#6a6a72" font-size="12">MF64 pads (4/12/20/28)</text>
<circle cx="26" cy="841" r="5" fill="none" stroke="#ffd166" stroke-width="2"/>
<text x="40" y="845" fill="#6a6a72" font-size="12">Knob arcs — 3 concentric / channel, fill=value</text>
<circle cx="26" cy="858" r="5" fill="none" stroke="#57d9a3" stroke-width="2"/>
<text x="40" y="862" fill="#6a6a72" font-size="12">Channel fader arcs (8 × 45° slice)</text>
<circle cx="26" cy="875" r="5" fill="none" stroke="#b18cff" stroke-width="2"/>
<text x="40" y="879" fill="#6a6a72" font-size="12">Master fader — full-circumference arc</text>
<circle cx="26" cy="892" r="5" fill="none" stroke="#ff5a5a" stroke-width="2"/>
<text x="40" y="896" fill="#6a6a72" font-size="12">Mute (8) / Rec-Arm (8)</text>
<text x="460.0" y="464.0" fill="#6a6a72" font-size="11" text-anchor="middle">center</text>
</svg>